{"title":"The Great Gatsby (2013) 720p HDTS X264 - 26K","uid":8533183,"size":2878500673,"categoryP":"video","categoryS":"hd___movies","magnet":"?xt=urn:btih:9f44d887663431ce464626a9dab7a120559667d3&amp;dn=The+Great+Gatsby+%282013%29+720p+HDTS+X264+-+26K&amp;tr=udp%3A%2F%2Ftracker.openbittorrent.com%3A80&amp;tr=udp%3A%2F%2Fopen.demonii.com%3A1337&amp;tr=udp%3A%2F%2Ftracker.coppersurfer.tk%3A6969&amp;tr=udp%3A%2F%2Fexodus.desync.com%3A6969","seeders":8,"leechers":0,"uploader":"tykoon123","files":-1,"time":1370207132,"description":" &lt;a href=&quot;http://content7.flixster.com/movie/11/17/12/11171265_800.jpg&quot; rel=&quot;nofollow&quot; target=&quot;_NEW&quot;&gt;http://content7.flixster.com/movie/11/17/12/11171265_800.jpg&lt;/a&gt;\n\nInfo:\n\nEncoder ..........: Tommie Cook \nVideo Codec.......: AVI.X264\nVideo Bitrate.....: 2500 Kbps \nAudio Codec.......: MP3\nAudio Bitrate.....: 320kbs\nResolution........: 1280X540 \nRelease Date......: N/A\nTheatre Date......: 10 May 2013 (USA)\nLanguage..........: English\nSubtitles.........: n/a\nIMDB Rating.......: 7.5/10\nIMDb URL..........:http://www.imdb.com/title/tt1343092/\n________________________________________________________\n\nFormat : Matroska\nFormat version : Version 4 / Version 2\nFile size : 2.60 GiB\nDuration : 2h 12mn\nOverall bit rate mode : Variable\nOverall bit rate : 2 810 Kbps\nEncoded date : UTC 2010-02-22 21:41:31\nWriting application : mkvmerge v5.9.0 ('On The Loose') built on Dec 9 2012 15:37:01\nWriting library : libebml v1.3.0 + libmatroska v1.4.0\n\n\n\n\n\n________________________________________________________________________________\n\nVideo\n\nVideo\nID : 1\nFormat : AVC\nFormat/Info : Advanced Video Codec\nFormat profile : &lt;a class=&quot;__cf_email__&quot; href=&quot;/cdn-cgi/l/email-protection&quot; data-cfemail=&quot;622a0b050a222e564c53&quot;&gt;[email&amp;#160;protected]&lt;/a&gt;&lt;script cf-hash='f9e31' type=&quot;text/javascript&quot;&gt;\n/* &lt;![CDATA[ */!function(){try{var t=&quot;currentScript&quot;in document?document.currentScript:function(){for(var t=document.getElementsByTagName(&quot;script&quot;),e=t.length;e--;)if(t[e].getAttribute(&quot;cf-hash&quot;))return t[e]}();if(t&amp;&amp;t.previousSibling){var e,r,n,i,c=t.previousSibling,a=c.getAttribute(&quot;data-cfemail&quot;);if(a){for(e=&quot;&quot;,r=parseInt(a.substr(0,2),16),n=2;a.length-n;n+=2)i=parseInt(a.substr(n,2),16)^r,e+=String.fromCharCode(i);e=document.createTextNode(e),c.parentNode.replaceChild(e,c)}}}catch(u){}}();/* ]]&gt; */&lt;/script&gt;\nFormat settings, CABAC : Yes\nFormat settings, ReFrames : 4 frames\nMuxing mode : Header stripping\nCodec ID : V_MPEG4/ISO/AVC\nDuration : 2h 12mn\nBit rate : 2 500 Kbps\nWidth : 1 280 pixels\nHeight : 540 pixels\nDisplay aspect ratio : 2.40:1\nFrame rate mode : Constant\nFrame rate : 29.970 fps\nColor space : YUV\nChroma subsampling : 4:2:0\nBit depth : 8 bits\nScan type : Progressive\nBits/(Pixel*Frame) : 0.121\nStream size : 2.25 GiB (87%)\nWriting library : x264 core 125 r2200bm 999b753\n\nAudio\n\nAudio\nID : 2\nFormat : MPEG Audio\nFormat version : Version 1\nFormat profile : Layer 3\nMode : Joint stereo\nMode extension : MS Stereo\nMuxing mode : Header stripping\nCodec ID : A_MPEG/L3\nCodec ID/Hint : MP3\nDuration : 2h 22mn\nBit rate mode : Variable\nBit rate : 320 Kbps\nChannel(s) : 2 channels\nSampling rate : 48.0 KHz\nCompression mode : Lossy\nDelay relative to video : 7s 700ms\nStream size : 326 MiB (12%)\nWriting library : LAME3.99.5\nDefault : Yes\nForced : No\n\nDid so much to it i forgot what all i done, so sorry.\n\nTHERES A HEAD AT THE BOTTOM LEFT, SO YOU'VE BEEN WARNED.\n\nAudio:\nGot line from a freind. Thanks\n\nMOVIE IS VERY WATCHABLE.\n\n\n\nScreens: &lt;a href=&quot;\nhttp://www.shotpix.com/images/42691290779803040857.png&quot; rel=&quot;nofollow&quot; target=&quot;_NEW&quot;&gt;\nhttp://www.shotpix.com/images/42691290779803040857.png&lt;/a&gt; &lt;a href=&quot;\nhttp://www.shotpix.com/images/71628904617253851958.png&quot; rel=&quot;nofollow&quot; target=&quot;_NEW&quot;&gt;\nhttp://www.shotpix.com/images/71628904617253851958.png&lt;/a&gt; &lt;a href=&quot;\nhttp://www.shotpix.com/images/67834808430486860859.png&quot; rel=&quot;nofollow&quot; target=&quot;_NEW&quot;&gt;\nhttp://www.shotpix.com/images/67834808430486860859.png&lt;/a&gt; &lt;a href=&quot;\nhttp://www.shotpix.com/images/54103391065384100212.png&quot; rel=&quot;nofollow&quot; target=&quot;_NEW&quot;&gt;\nhttp://www.shotpix.com/images/54103391065384100212.png&lt;/a&gt; &lt;a href=&quot;\nhttp://www.shotpix.com/images/40421813546598968017.png&quot; rel=&quot;nofollow&quot; target=&quot;_NEW&quot;&gt;\nhttp://www.shotpix.com/images/40421813546598968017.png&lt;/a&gt; &lt;a href=&quot;\nhttp://www.shotpix.com/images/96611889020028888170.png&quot; rel=&quot;nofollow&quot; target=&quot;_NEW&quot;&gt;\nhttp://www.shotpix.com/images/96611889020028888170.png&lt;/a&gt; &lt;a href=&quot;\nhttp://www.shotpix.com/images/96611889020028888170.png&quot; rel=&quot;nofollow&quot; target=&quot;_NEW&quot;&gt;\nhttp://www.shotpix.com/images/96611889020028888170.png&lt;/a&gt;\n\n\n\n\n\n\n\n\n","torrent":{"xt":"urn:btih:9f44d887663431ce464626a9dab7a120559667d3","amp;dn":"The+Great+Gatsby+%282013%29+720p+HDTS+X264+-+26K","amp;tr":["udp%3A%2F%2Ftracker.openbittorrent.com%3A80","udp%3A%2F%2Fopen.demonii.com%3A1337","udp%3A%2F%2Ftracker.coppersurfer.tk%3A6969","udp%3A%2F%2Fexodus.desync.com%3A6969"],"infoHash":"9f44d887663431ce464626a9dab7a120559667d3","infoHashBuffer":{"type":"Buffer","data":[159,68,216,135,102,52,49,206,70,70,38,169,218,183,161,32,85,150,103,211]},"announce":[],"urlList":[]}}